HIERARCHY
ROOT Hips
{
    OFFSET 0.000000 0.000000 0.000000
    CHANNELS 6 Xposition Yposition Zposition Zrotation Xrotation Yrotation
    JOINT Spine
    {
        OFFSET -0.000000 14.517291 0.000000
        CHANNELS 3 Zrotation Xrotation Yrotation
        JOINT Spine1
        {
            OFFSET -0.000000 37.558300 0.000000
            CHANNELS 3 Zrotation Xrotation Yrotation
            JOINT Neck
            {
                OFFSET -0.000000 37.404057 3.400369
                CHANNELS 3 Zrotation Xrotation Yrotation
                JOINT Head
                {
                    OFFSET -0.000000 24.785618 -3.540803
                    CHANNELS 3 Zrotation Xrotation Yrotation
                    End Site
                    {
                        OFFSET -0.000000 35.408028 0.000000
                    }
                }
            }
            JOINT LeftShoulder
            {
                OFFSET 6.992933 33.973492 -0.192664
                CHANNELS 3 Zrotation Xrotation Yrotation
                JOINT LeftArm
                {
                    OFFSET 21.527611 0.000000 0.000000
                    CHANNELS 3 Zrotation Xrotation Yrotation
                    JOINT LeftForeArm
                    {
                        OFFSET 56.353916 0.000000 0.000000
                        CHANNELS 3 Zrotation Xrotation Yrotation
                        JOINT LeftHand
                        {
                            OFFSET 47.774071 0.000000 0.000000
                            CHANNELS 3 Zrotation Xrotation Yrotation
                            End Site
                            {
                                OFFSET 26.556021 0.000000 0.000000
                            }
                        }
                    }
                }
            }
            JOINT RightShoulder
            {
                OFFSET -7.065357 33.973492 -0.192664
                CHANNELS 3 Zrotation Xrotation Yrotation
                JOINT RightArm
                {
                    OFFSET -21.527611 0.000000 0.000000
                    CHANNELS 3 Zrotation Xrotation Yrotation
                    JOINT RightForeArm
                    {
                        OFFSET -56.353916 0.000000 0.000000
                        CHANNELS 3 Zrotation Xrotation Yrotation
                        JOINT RightHand
                        {
                            OFFSET -47.774071 0.000000 0.000000
                            CHANNELS 3 Zrotation Xrotation Yrotation
                            End Site
                            {
                                OFFSET -26.556021 0.000000 0.000000
                            }
                        }
                    }
                }
            }
        }
    }
    JOINT LeftUpLeg
    {
        OFFSET 17.704014 0.000000 0.000000
        CHANNELS 3 Zrotation Xrotation Yrotation
        JOINT LeftLeg
        {
            OFFSET -0.000000 -81.181816 0.000000
            CHANNELS 3 Zrotation Xrotation Yrotation
            JOINT LeftFoot
            {
                OFFSET -0.000000 -62.821102 0.000000
                CHANNELS 3 Zrotation Xrotation Yrotation
                JOINT LeftToeBase
                {
                    OFFSET -0.000000 -11.507608 26.556021
                    CHANNELS 3 Zrotation Xrotation Yrotation
                    End Site
                    {
                        OFFSET -0.000000 0.000000 7.081605
                    }
                }
            }
        }
    }
    JOINT RightUpLeg
    {
        OFFSET -17.704014 0.000000 0.000000
        CHANNELS 3 Zrotation Xrotation Yrotation
        JOINT RightLeg
        {
            OFFSET -0.000000 -81.181816 0.000000
            CHANNELS 3 Zrotation Xrotation Yrotation
            JOINT RightFoot
            {
                OFFSET -0.000000 -62.821102 0.000000
                CHANNELS 3 Zrotation Xrotation Yrotation
                JOINT RightToeBase
                {
                    OFFSET -0.000000 -11.507608 26.556021
                    CHANNELS 3 Zrotation Xrotation Yrotation
                    End Site
                    {
                        OFFSET -0.000000 0.000000 7.081605
                    }
                }
            }
        }
    }
}
MOTION
Frames:    10
Frame Time:    0.008333
-12.249562    152.104370    -98.154327    3.957947    -5.521621    45.560318    -4.177190    0.343551    -7.399901    0.057878    6.313215    -2.473374    -1.076657    -0.982760    -15.345708    13.751493    5.031879    -14.495991    11.218347    5.216460    -26.913647    -21.102644    20.370695    -99.159615    71.688866    -63.557083    -33.670521    -21.207695    -45.893021    -30.016193    3.343886    12.078339    -4.605108    30.997850    19.234022    46.270760    -12.353318    -0.154793    32.018330    -26.575745    -4.192066    31.330334    16.558138    -0.618741    -4.390349    -18.594276    39.671299    -20.308979    7.362508    -30.714775    50.447895    0.000000    0.000000    0.000000    -25.517204    -15.830118    -23.247488    10.620502    31.643009    -18.971050    7.780151    6.332366    -8.479028    0.000000    0.000000    0.000000    
-12.270083    152.107819    -98.160027    3.964131    -5.520763    45.561691    -4.173320    0.344030    -7.401555    0.037418    6.300943    -2.472804    -1.048777    -0.986367    -15.344173    13.733857    5.026259    -14.499778    11.220148    5.218258    -26.902922    -21.121773    20.375355    -99.084663    71.502991    -63.563725    -33.888073    -21.271339    -45.822205    -30.061176    3.354862    12.062182    -4.620652    31.007128    19.214870    46.222191    -12.325020    -0.143016    32.030300    -26.557018    -4.175550    31.306763    16.556217    -0.618473    -4.384753    -18.586744    39.660904    -20.288298    7.334896    -30.719034    50.419392    0.000000    0.000000    0.000000    -25.515755    -15.830041    -23.250122    10.619445    31.636961    -18.973654    7.756548    6.336213    -8.460958    0.000000    0.000000    0.000000    
-12.291664    152.107910    -98.164932    3.969014    -5.518552    45.562637    -4.167374    0.349917    -7.402814    0.021343    6.273048    -2.472409    -1.043090    -0.989915    -15.338245    13.732200    5.035063    -14.495641    11.202296    5.214887    -26.900717    -21.127670    20.398563    -98.975822    71.326469    -63.570919    -34.111427    -21.329422    -45.751781    -30.073542    3.359655    12.054151    -4.642571    31.023401    19.201050    46.184593    -12.316020    -0.121623    32.029102    -26.564520    -4.165431    31.331181    16.557844    -0.620763    -4.375353    -18.581366    39.655823    -20.307192    7.338054    -30.700279    50.419399    0.000000    0.000000    0.000000    -25.515015    -15.834282    -23.258289    10.610228    31.635618    -18.964695    7.759952    6.332326    -8.468163    0.000000    0.000000    0.000000    
-12.308560    152.107193    -98.162506    3.978494    -5.523584    45.575912    -4.162396    0.354040    -7.413494    0.008588    6.252427    -2.475324    -1.014690    -0.987477    -15.329690    13.689194    5.036283    -14.495453    11.193013    5.224141    -26.892523    -21.144348    20.395323    -98.842384    71.104378    -63.562286    -34.370243    -21.397615    -45.647587    -30.104151    3.347540    12.061682    -4.666037    31.039686    19.188179    46.173275    -12.305546    -0.128739    32.021202    -26.555923    -4.167619    31.306530    16.562893    -0.614663    -4.381878    -18.573467    39.646927    -20.319988    7.331768    -30.695669    50.402355    0.000000    0.000000    0.000000    -25.513752    -15.819561    -23.266819    10.608619    31.631313    -18.984951    7.751860    6.326521    -8.438393    0.000000    0.000000    0.000000    
-12.326995    152.105408    -98.164680    3.988961    -5.525004    45.587692    -4.154564    0.353686    -7.419580    -0.020125    6.252100    -2.475760    -0.977234    -1.018308    -15.329500    13.648284    5.061789    -14.507898    11.216146    5.218475    -26.865578    -21.188065    20.398035    -98.728134    70.902725    -63.530842    -34.606079    -21.483498    -45.509674    -30.142389    3.359336    12.107924    -4.756408    31.006945    19.173759    46.268238    -12.308686    -0.156457    31.975100    -26.594561    -4.202899    31.273859    16.563919    -0.611581    -4.398899    -18.581165    39.636063    -20.337391    7.344028    -30.688486    50.423889    0.000000    0.000000    0.000000    -25.516762    -15.811637    -23.272726    10.607141    31.632265    -18.984673    7.748903    6.315207    -8.440239    0.000000    0.000000    0.000000    
-12.344146    152.101761    -98.164597    4.005408    -5.531744    45.599709    -4.148182    0.361895    -7.431856    -0.036545    6.246109    -2.479039    -0.984280    -1.015273    -15.324861    13.653626    5.052835    -14.500356    11.212893    5.206695    -26.832417    -21.224520    20.416101    -98.596642    70.779480    -63.473061    -34.758221    -21.624077    -45.334461    -30.224104    3.339849    12.096552    -4.786880    31.020306    19.188427    46.267399    -12.323935    -0.164811    31.978430    -26.562893    -4.189754    31.245283    16.563774    -0.596146    -4.407636    -18.579523    39.622616    -20.337132    7.331792    -30.698202    50.409985    0.000000    0.000000    0.000000    -25.526266    -15.797342    -23.271782    10.624176    31.641953    -18.990093    7.727427    6.297319    -8.439747    0.000000    0.000000    0.000000    
-12.364017    152.097961    -98.167839    4.015844    -5.531311    45.616539    -4.146389    0.362303    -7.448229    -0.048501    6.248673    -2.483846    -0.986237    -1.054232    -15.322676    13.639487    5.081336    -14.502154    11.205840    5.171013    -26.780840    -21.308605    20.469057    -98.459915    70.522705    -63.431087    -35.050537    -21.637640    -45.190136    -30.201328    3.338955    12.058970    -4.815137    31.029306    19.213003    46.242832    -12.347996    -0.178292    31.983906    -26.555578    -4.203360    31.284182    16.561531    -0.596468    -4.422576    -18.576832    39.614616    -20.346352    7.345635    -30.691700    50.419559    0.000000    0.000000    0.000000    -25.533381    -15.791818    -23.285984    10.619802    31.651083    -18.993092    7.731622    6.289815    -8.431368    0.000000    0.000000    0.000000    
-12.383282    152.092667    -98.164230    4.036908    -5.541608    45.622482    -4.139000    0.378247    -7.462066    -0.070126    6.242509    -2.487455    -1.012383    -1.024088    -15.328045    13.687366    5.036808    -14.494010    11.198866    5.149376    -26.702757    -21.362497    20.520638    -98.345947    70.309883    -63.399353    -35.284622    -21.630209    -45.088943    -30.150999    3.325030    12.044559    -4.820758    31.058641    19.222010    46.211929    -12.358547    -0.207087    32.018383    -26.477690    -4.191683    31.243996    16.565948    -0.573128    -4.413059    -18.571333    39.606335    -20.361774    7.356727    -30.685472    50.405216    0.000000    0.000000    0.000000    -25.537529    -15.776586    -23.281891    10.629113    31.661198    -19.009752    7.725919    6.270876    -8.418432    0.000000    0.000000    0.000000    
-12.404683    152.088837    -98.164787    4.048012    -5.544714    45.631584    -4.140913    0.379404    -7.463021    -0.074648    6.243088    -2.487555    -1.014923    -0.999079    -15.332026    13.701385    4.978977    -14.489705    11.183330    5.106334    -26.648651    -21.416788    20.581930    -98.223396    70.029678    -63.397434    -35.569168    -21.564814    -45.048836    -30.051081    3.313748    12.037384    -4.839586    31.098011    19.194031    46.172974    -12.364356    -0.213561    32.056892    -26.506882    -4.206968    31.269129    16.570189    -0.565292    -4.423113    -18.579685    39.589798    -20.345350    7.341706    -30.692287    50.386772    0.000000    0.000000    0.000000    -25.540527    -15.772514    -23.285494    10.631394    31.670309    -19.033737    7.726290    6.269127    -8.395621    0.000000    0.000000    0.000000    
-12.423939    152.082687    -98.164780    4.059628    -5.546148    45.638702    -4.144162    0.370570    -7.462915    -0.073463    6.252982    -2.487495    -1.040537    -0.965769    -15.347085    13.729636    4.924904    -14.492509    11.145631    5.061402    -26.598114    -21.430443    20.644417    -98.062996    69.709595    -63.422062    -35.890877    -21.509352    -45.042336    -29.953119    3.289495    12.034582    -4.850234    31.137768    19.164291    46.137901    -12.364585    -0.205602    32.097240    -26.496416    -4.186946    31.252493    16.568987    -0.560107    -4.428423    -18.577795    39.587444    -20.347652    7.349086    -30.696486    50.382626    0.000000    0.000000    0.000000    -25.547565    -15.767435    -23.282486    10.646055    31.677706    -19.040289    7.701444    6.247484    -8.391613    0.000000    0.000000    0.000000    
